
        <svg data-logo="logo" xmlns="http://www.w3.org/2000/svg" viewBox="0 0 274 40">
          <g id="logogram" transform="translate(0, 0) rotate(0)"><path d="M40.0277 20C40.0277 31.0457 31.0734 40 20.0277 40C8.98208 40 0.02771 31.0457 0.02771 20C0.02771 8.95431 8.98208 0 20.0277 0C31.0734 0 40.0277 8.95431 40.0277 20Z" fill="#68DBFF"/><path d="M63.0277 20C63.0277 31.0457 54.0733 40 43.0277 40C31.9821 40 23.0277 31.0457 23.0277 20C23.0277 8.95431 31.9821 0 43.0277 0C54.0733 0 63.0277 8.95431 63.0277 20Z" fill="#FF7917"/><path fill-rule="evenodd" clip-rule="evenodd" d="M31.5277 36.3651C36.6688 32.7457 40.0277 26.7651 40.0277 20C40.0277 13.2349 36.6688 7.25426 31.5277 3.63489C26.3866 7.25426 23.0277 13.2349 23.0277 20C23.0277 26.7651 26.3866 32.7457 31.5277 36.3651Z" fill="#5D2C02"/></g>
          <g id="logotype" transform="translate(70, 2.5)"><path fill="#111111" d="M19.80 35L8.44 35L8.44 8.08L19.12 8.08Q22.08 8.08 24.06 8.98Q26.04 9.87 27.02 11.42Q28.00 12.98 28.00 15.00L28.00 15.00Q28.00 16.59 27.37 17.77Q26.74 18.96 25.65 19.71Q24.55 20.46 23.16 20.78L23.16 20.78L23.16 21.05Q24.68 21.11 26.03 21.91Q27.37 22.71 28.21 24.15Q29.05 25.59 29.05 27.59L29.05 27.59Q29.05 29.71 28.00 31.39Q26.96 33.07 24.91 34.03Q22.86 35 19.80 35L19.80 35ZM13.95 23.17L13.95 30.47L18.72 30.47Q21.14 30.47 22.26 29.53Q23.38 28.59 23.38 27.07L23.38 27.07Q23.38 25.91 22.83 25.04Q22.28 24.16 21.27 23.66Q20.25 23.17 18.86 23.17L18.86 23.17L13.95 23.17ZM13.95 12.58L13.95 19.39L18.30 19.39Q19.48 19.39 20.42 18.97Q21.36 18.54 21.89 17.76Q22.42 16.97 22.42 15.89L22.42 15.89Q22.42 14.42 21.38 13.50Q20.34 12.58 18.41 12.58L18.41 12.58L13.95 12.58ZM30.39 8.08L35.81 8.08L35.81 35L30.39 35L30.39 8.08ZM47.04 35.40L47.04 35.40Q44.01 35.40 41.79 34.09Q39.56 32.78 38.36 30.44Q37.16 28.10 37.16 24.99L37.16 24.99Q37.16 21.85 38.36 19.51Q39.56 17.17 41.79 15.86Q44.01 14.55 47.04 14.55L47.04 14.55Q50.10 14.55 52.31 15.86Q54.52 17.17 55.72 19.51Q56.92 21.85 56.92 24.99L56.92 24.99Q56.92 28.10 55.72 30.44Q54.52 32.78 52.31 34.09Q50.10 35.40 47.04 35.40ZM47.04 31.13L47.04 31.13Q48.49 31.13 49.46 30.33Q50.44 29.53 50.93 28.13Q51.41 26.73 51.41 24.97L51.41 24.97Q51.41 23.18 50.93 21.79Q50.44 20.40 49.46 19.61Q48.49 18.81 47.04 18.81L47.04 18.81Q45.60 18.81 44.63 19.61Q43.66 20.40 43.18 21.79Q42.69 23.18 42.69 24.97L42.69 24.97Q42.69 26.73 43.18 28.13Q43.66 29.53 44.63 30.33Q45.60 31.13 47.04 31.13ZM67.33 35.40L67.33 35.40Q64.29 35.40 62.07 34.09Q59.85 32.78 58.65 30.44Q57.45 28.10 57.45 24.99L57.45 24.99Q57.45 21.85 58.65 19.51Q59.85 17.17 62.07 15.86Q64.29 14.55 67.33 14.55L67.33 14.55Q70.38 14.55 72.60 15.86Q74.81 17.17 76.01 19.51Q77.21 21.85 77.21 24.99L77.21 24.99Q77.21 28.10 76.01 30.44Q74.81 32.78 72.60 34.09Q70.38 35.40 67.33 35.40ZM67.33 31.13L67.33 31.13Q68.77 31.13 69.75 30.33Q70.73 29.53 71.21 28.13Q71.70 26.73 71.70 24.97L71.70 24.97Q71.70 23.18 71.21 21.79Q70.73 20.40 69.75 19.61Q68.77 18.81 67.33 18.81L67.33 18.81Q65.88 18.81 64.92 19.61Q63.95 20.40 63.46 21.79Q62.97 23.18 62.97 24.97L62.97 24.97Q62.97 26.73 63.46 28.13Q63.95 29.53 64.92 30.33Q65.88 31.13 67.33 31.13ZM84.00 35L78.58 35L78.58 14.80L83.60 14.80L83.88 19.82L83.48 19.82Q83.95 17.96 84.86 16.79Q85.77 15.61 87.00 15.05Q88.23 14.49 89.58 14.49L89.58 14.49Q91.77 14.49 93.11 15.88Q94.44 17.26 95.08 20.15L95.08 20.15L94.44 20.15Q94.90 18.22 95.92 16.96Q96.94 15.71 98.34 15.10Q99.74 14.49 101.27 14.49L101.27 14.49Q103.13 14.49 104.59 15.31Q106.04 16.12 106.88 17.65Q107.72 19.17 107.72 21.38L107.72 21.38L107.72 35L102.30 35L102.30 22.41Q102.30 20.69 101.37 19.86Q100.44 19.03 99.09 19.03L99.09 19.03Q98.08 19.03 97.33 19.47Q96.58 19.91 96.17 20.71Q95.76 21.50 95.76 22.57L95.76 22.57L95.76 35L90.52 35L90.52 22.26Q90.52 20.78 89.65 19.91Q88.77 19.03 87.38 19.03L87.38 19.03Q86.42 19.03 85.66 19.46Q84.89 19.90 84.44 20.74Q84.00 21.58 84.00 22.79L84.00 22.79L84.00 35ZM125.16 35L117.95 35L108.52 8.08L114.64 8.08L118.94 21.07Q119.72 23.53 120.51 26.48Q121.31 29.44 122.19 32.94L122.19 32.94L121.00 32.94Q121.87 29.40 122.63 26.46Q123.38 23.53 124.13 21.07L124.13 21.07L128.28 8.08L134.37 8.08L125.16 35ZM144.29 35.40L144.29 35.40Q141.20 35.40 138.96 34.13Q136.72 32.87 135.51 30.54Q134.31 28.21 134.31 25.01L134.31 25.01Q134.31 21.88 135.51 19.54Q136.70 17.19 138.88 15.87Q141.07 14.55 144.01 14.55L144.01 14.55Q146.00 14.55 147.72 15.18Q149.43 15.81 150.74 17.09Q152.04 18.36 152.77 20.28Q153.50 22.19 153.50 24.79L153.50 24.79L153.50 26.31L136.53 26.31L136.53 22.91L150.84 22.91L148.31 23.82Q148.31 22.25 147.84 21.08Q147.36 19.91 146.41 19.27Q145.46 18.63 144.05 18.63L144.05 18.63Q142.66 18.63 141.67 19.28Q140.69 19.93 140.18 21.04Q139.68 22.15 139.68 23.58L139.68 23.58L139.68 25.98Q139.68 27.74 140.27 28.93Q140.85 30.12 141.91 30.72Q142.97 31.31 144.38 31.31L144.38 31.31Q145.33 31.31 146.11 31.04Q146.89 30.77 147.44 30.24Q147.99 29.71 148.28 28.93L148.28 28.93L153.19 29.85Q152.70 31.51 151.49 32.77Q150.28 34.02 148.47 34.71Q146.65 35.40 144.29 35.40ZM160.22 35L154.80 35L154.80 14.80L160.04 14.80L160.04 18.32L160.25 18.32Q160.81 16.45 162.12 15.49Q163.43 14.53 165.13 14.53L165.13 14.53Q165.55 14.53 166.03 14.58Q166.50 14.62 166.88 14.71L166.88 14.71L166.88 19.55Q166.52 19.43 165.84 19.35Q165.15 19.28 164.54 19.28L164.54 19.28Q163.31 19.28 162.31 19.82Q161.32 20.35 160.77 21.30Q160.22 22.25 160.22 23.51L160.22 23.51L160.22 35ZM175.48 35.40L175.48 35.40Q173.04 35.40 171.16 34.70Q169.28 34.01 168.09 32.68Q166.90 31.35 166.56 29.47L166.56 29.47L171.60 28.60Q171.99 30.01 172.99 30.72Q173.98 31.42 175.64 31.42L175.64 31.42Q177.18 31.42 178.08 30.84Q178.99 30.25 178.99 29.35L178.99 29.35Q178.99 28.55 178.35 28.04Q177.70 27.54 176.38 27.27L176.38 27.27L172.90 26.54Q169.97 25.95 168.53 24.51Q167.08 23.08 167.08 20.82L167.08 20.82Q167.08 18.87 168.15 17.47Q169.21 16.07 171.11 15.31Q173.01 14.55 175.57 14.55L175.57 14.55Q177.96 14.55 179.71 15.21Q181.46 15.87 182.55 17.08Q183.63 18.29 183.99 19.93L183.99 19.93L179.19 20.78Q178.88 19.75 178.00 19.09Q177.13 18.43 175.64 18.43L175.64 18.43Q174.31 18.43 173.40 18.99Q172.50 19.55 172.50 20.47L172.50 20.47Q172.50 21.25 173.09 21.78Q173.68 22.30 175.10 22.59L175.10 22.59L178.73 23.31Q181.66 23.91 183.09 25.25Q184.51 26.60 184.51 28.77L184.51 28.77Q184.51 30.75 183.36 32.24Q182.20 33.74 180.17 34.57Q178.14 35.40 175.48 35.40ZM194.90 35.40L194.90 35.40Q191.81 35.40 189.57 34.13Q187.33 32.87 186.13 30.54Q184.93 28.21 184.93 25.01L184.93 25.01Q184.93 21.88 186.12 19.54Q187.31 17.19 189.50 15.87Q191.69 14.55 194.63 14.55L194.63 14.55Q196.62 14.55 198.33 15.18Q200.05 15.81 201.35 17.09Q202.65 18.36 203.38 20.28Q204.11 22.19 204.11 24.79L204.11 24.79L204.11 26.31L187.15 26.31L187.15 22.91L201.46 22.91L198.93 23.82Q198.93 22.25 198.45 21.08Q197.97 19.91 197.02 19.27Q196.08 18.63 194.67 18.63L194.67 18.63Q193.27 18.63 192.29 19.28Q191.31 19.93 190.80 21.04Q190.29 22.15 190.29 23.58L190.29 23.58L190.29 25.98Q190.29 27.74 190.88 28.93Q191.47 30.12 192.53 30.72Q193.58 31.31 194.99 31.31L194.99 31.31Q195.95 31.31 196.73 31.04Q197.50 30.77 198.05 30.24Q198.60 29.71 198.89 28.93L198.89 28.93L203.81 29.85Q203.32 31.51 202.11 32.77Q200.90 34.02 199.08 34.71Q197.27 35.40 194.90 35.40Z"/></g>
          
        </svg>
      